{"title":"Chattahoochee.1989 [PAz]","uid":11203700,"size":1026048299,"categoryP":"video","categoryS":"movies","magnet":"?xt=urn:btih:09dc314f076e90d2effb3ecc54a7976ad631e000&amp;dn=Chattahoochee.1989+%5BPAz%5D&amp;tr=udp%3A%2F%2Ftracker.openbittorrent.com%3A80&amp;tr=udp%3A%2F%2Fopen.demonii.com%3A1337&amp;tr=udp%3A%2F%2Ftracker.coppersurfer.tk%3A6969&amp;tr=udp%3A%2F%2Fexodus.desync.com%3A6969","seeders":0,"leechers":1,"uploader":null,"files":3,"time":1413205836,"description":"Country: USA\n Year: 1989\n Sound: English\n Subtitles: English and French (.SRT)\n\n\n IMDB code: tt0099242\n IMDB rate: 6.4/10 (1261)\n\n\nEmmet Foley, a decorated but troubled Korean War vet, has a breakdown and goes on a shooting spree in his neighborhood, subliminally hoping to commit &quot;suicide by cop.&quot; \nFailing that, he shoots himself in the chest but survives to be sentenced to a &quot;maximum security&quot; mental health facility in 1955 Florida.\nWhile recovering, he begins to feel a sense of rage over the mistreatment and open abuse of his fellow inmates, whose needs are ignored in an atmosphere of neglect and filth. \nWith the help of another inmate and his faithful sister, he begins a campaign against the entrenched bureaucracy to improve conditions for his fellow patients. \n\nGeneral\nComplete name                            : Chattahoochee.1989 [PAz].avi\nFormat                                   : AVI\nFormat/Info                              : Audio Video Interleave\nFile size                                : 978 MiB\nDuration                                 : 1h 33mn\nOverall bit rate                         : 1 462 Kbps\nWriting application                      : Lavf55.19.104\n\nVideo\nID                                       : 0\nFormat                                   : AVC\nFormat/Info                              : Advanced Video Codec\nFormat profile                           : &lt;a class=&quot;__cf_email__&quot; href=&quot;/cdn-cgi/l/email-protection&quot; data-cfemail=&quot;8ecceffdebe2e7e0ebcec2bfa0bd&quot;&gt;[email&amp;#160;protected]&lt;/a&gt;&lt;script cf-hash='f9e31' type=&quot;text/javascript&quot;&gt;\n/* &lt;![CDATA[ */!function(){try{var t=&quot;currentScript&quot;in document?document.currentScript:function(){for(var t=document.getElementsByTagName(&quot;script&quot;),e=t.length;e--;)if(t[e].getAttribute(&quot;cf-hash&quot;))return t[e]}();if(t&amp;&amp;t.previousSibling){var e,r,n,i,c=t.previousSibling,a=c.getAttribute(&quot;data-cfemail&quot;);if(a){for(e=&quot;&quot;,r=parseInt(a.substr(0,2),16),n=2;a.length-n;n+=2)i=parseInt(a.substr(n,2),16)^r,e+=String.fromCharCode(i);e=document.createTextNode(e),c.parentNode.replaceChild(e,c)}}}catch(u){}}();/* ]]&gt; */&lt;/script&gt;\nFormat settings, CABAC                   : No\nFormat settings, ReFrames                : 2 frames\nCodec ID                                 : H264\nDuration                                 : 1h 33mn\nBit rate                                 : 1 250 Kbps\nWidth                                    : 720 pixels\nHeight                                   : 406 pixels\nDisplay aspect ratio                     : 16:9\nFrame rate mode                          : Variable\nFrame rate                               : 25.000 fps\nColor space                              : YUV\nChroma subsampling                       : 4:2:0\nBit depth                                : 8 bits\nScan type                                : Progressive\nBits/(Pixel*Frame)                       : 0.171\nStream size                              : 843 MiB (86%)\nWriting library                          : x264 core 140 r2377 1ca7bb9\n\nAudio\nID                                       : 1\nFormat                                   : AC-3\nFormat/Info                              : Audio Coding 3\nMode extension                           : CM (complete main)\nFormat settings, Endianness              : Big\nCodec ID                                 : 2000\nDuration                                 : 1h 33mn\nBit rate mode                            : Constant\nBit rate                                 : 192 Kbps\nChannel(s)                               : 2 channels\nChannel positions                        : Front: L R\nSampling rate                            : 48.0 KHz\nBit depth                                : 16 bits\nCompression mode                         : Lossy\nStream size                              : 128 MiB (13%)\nAlignment                                : Aligned on interleaves\nInterleave, duration                     : 32 ms (0.80 video frame)\nTitle                                    : Original","torrent":{"xt":"urn:btih:09dc314f076e90d2effb3ecc54a7976ad631e000","amp;dn":"Chattahoochee.1989+%5BPAz%5D","amp;tr":["udp%3A%2F%2Ftracker.openbittorrent.com%3A80","udp%3A%2F%2Fopen.demonii.com%3A1337","udp%3A%2F%2Ftracker.coppersurfer.tk%3A6969","udp%3A%2F%2Fexodus.desync.com%3A6969"],"infoHash":"09dc314f076e90d2effb3ecc54a7976ad631e000","infoHashBuffer":{"type":"Buffer","data":[9,220,49,79,7,110,144,210,239,251,62,204,84,167,151,106,214,49,224,0]},"announce":[],"urlList":[]}}